<svg width="48" height="48" viewBox="0 0 48 48" fill="none" xmlns="http://www.w3.org/2000/svg">
<rect width="48" height="48" rx="10" fill="#F6F6F6"/>
<path d="M34.8 23.9952C34.8 22.7856 34.0848 21.7128 32.9928 21.24C33.228 20.8056 33.3504 20.316 33.3504 19.8096C33.3504 18.228 32.1192 16.9272 30.564 16.812C30.5736 16.7184 30.576 16.62 30.576 16.524C30.576 16.5192 30.576 16.5144 30.576 16.5072C30.576 16.5024 30.576 16.4976 30.576 16.4904C30.576 16.4856 30.576 16.4832 30.576 16.4808C30.552 14.844 29.2152 13.5168 27.5712 13.5168C26.0664 13.5168 24.8064 14.6136 24.5952 16.0848C24.5712 16.1232 24.5568 16.1664 24.5568 16.2144V31.7832C24.5568 31.8264 24.5712 31.8648 24.5928 31.9008C24.7992 33.3792 26.064 34.4832 27.5712 34.4832C29.2176 34.4832 30.5592 33.1512 30.576 31.5096C30.576 31.5072 30.576 31.5048 30.576 31.5024C30.576 31.4976 30.576 31.4952 30.576 31.4904C30.576 31.4856 30.576 31.4832 30.576 31.4784C30.576 31.4232 30.5712 31.368 30.5688 31.3152C30.5688 31.3056 30.5688 31.2984 30.5688 31.2888C30.5688 31.2576 30.5688 31.224 30.564 31.1904C32.1192 31.0728 33.3504 29.7696 33.3504 28.1856C33.3504 27.684 33.228 27.1968 32.9928 26.7624C34.0848 26.2848 34.8024 25.2096 34.8024 24L34.8 23.9952Z" fill="#949BA1"/>
<path d="M20.4216 13.5192C18.7776 13.5192 17.4408 14.844 17.4168 16.4832V16.4928V16.5096V16.5264C17.4168 16.6248 17.4216 16.7208 17.4288 16.8144C15.8736 16.9296 14.6424 18.2304 14.6424 19.812C14.6424 20.3184 14.7648 20.8056 15 21.2424C13.9128 21.7128 13.2 22.7856 13.2 23.9976C13.2 25.2096 13.9128 26.2824 15 26.76C14.7648 27.1944 14.6424 27.6816 14.6424 28.1832C14.6424 29.7696 15.8736 31.0728 17.4288 31.188C17.4264 31.2216 17.4264 31.2552 17.424 31.2888C17.4192 31.3512 17.4168 31.4136 17.4168 31.476V31.488V31.5V31.5072C17.4336 33.1512 18.7752 34.4808 20.4216 34.4808C21.924 34.4808 23.1864 33.384 23.3976 31.9128C23.4216 31.8744 23.436 31.8312 23.436 31.7832V16.2168C23.436 16.1736 23.4216 16.1352 23.4 16.0992C23.196 14.6208 21.9312 13.5168 20.4216 13.5168V13.5192Z" fill="#949BA1"/>
</svg>
