<svg width="500" height="173" viewBox="0 0 500 173" fill="none" xmlns="http://www.w3.org/2000/svg">
<g clip-path="url(#clip0_1_432)">
<path d="M10 0.75H341C346.109 0.75 350.25 4.89137 350.25 10V57.707C350.25 60.1901 349.199 62.4347 347.546 64.4209C345.889 66.4108 343.654 68.1061 341.371 69.4648C335.562 72.922 331.668 79.256 331.668 86.5C331.668 93.7425 335.562 100.077 341.371 103.534C343.654 104.893 345.889 106.589 347.546 108.579C349.199 110.565 350.25 112.81 350.25 115.293V163C350.25 168.109 346.109 172.25 341 172.25H10C4.89137 172.25 0.75 168.109 0.75 163V106.311C11.4164 105.962 19.958 97.2289 19.958 86.5C19.958 75.771 11.4164 67.0375 0.75 66.6885V10C0.75 4.89137 4.89137 0.75 10 0.75Z" fill="#D2EBE0" stroke="#327455" stroke-width="1.5"/>
</g>
<g clip-path="url(#clip1_1_432)">
<path d="M490 0.75H159C153.891 0.75 149.75 4.89137 149.75 10V57.707C149.75 60.1901 150.801 62.4347 152.454 64.4209C154.111 66.4108 156.346 68.1061 158.629 69.4648C164.438 72.922 168.332 79.256 168.332 86.5C168.332 93.7425 164.438 100.077 158.629 103.534C156.346 104.893 154.111 106.589 152.454 108.579C150.801 110.565 149.75 112.81 149.75 115.293V163C149.75 168.109 153.891 172.25 159 172.25H490C495.109 172.25 499.25 168.109 499.25 163V106.311C488.584 105.962 480.042 97.2289 480.042 86.5C480.042 75.771 488.584 67.0375 499.25 66.6885V10C499.25 4.89137 495.109 0.75 490 0.75Z" fill="#D2EBE0" stroke="#327455" stroke-width="1.5"/>
</g>
<defs>
<clipPath id="clip0_1_432">
<rect width="254" height="173" fill="white"/>
</clipPath>
<clipPath id="clip1_1_432">
<rect width="254" height="173" fill="white" transform="matrix(-1 0 0 1 500 0)"/>
</clipPath>
</defs>
</svg>
