<svg width="351" height="24" viewBox="0 0 351 24" fill="none" xmlns="http://www.w3.org/2000/svg">
<g clip-path="url(#clip0_1769_559)">
<path d="M142.304 7.74924C142.304 7.74924 143.195 13.2503 139.002 13.7213C139.002 13.7213 138.313 13.836 137.969 13.3191C134.417 9.12404 123.126 1.76663 112 14.6796C112 14.6796 118.218 8.12184 125.719 8.88041C124.188 9.61988 123.126 11.2039 123.126 13.044C123.126 15.5901 125.153 17.6547 127.654 17.6547C130.154 17.6547 132.181 15.591 132.181 13.044C132.181 12.4115 132.056 11.8096 131.83 11.2603C132.472 11.7189 133.116 12.2501 133.756 12.8644C133.756 12.8644 135.57 14.6557 136.104 15.4468C136.835 16.5283 138.281 16.1318 138.677 16.0639C138.744 16.0525 138.954 15.9971 139.11 15.9608C140.197 15.7105 144.413 14.3003 142.304 7.74828V7.74924ZM131.578 11.9692C131.527 12.2424 131.373 12.4774 131.148 12.6274L129.544 13.7519L129.426 13.8341L129.346 13.7137L128.237 12.038C128.097 11.8173 128.046 11.5545 128.095 11.2966C128.197 10.7472 128.717 10.3851 129.252 10.4893C129.559 10.5485 129.813 10.7491 129.95 11.0243C130.176 10.8189 130.485 10.7272 130.792 10.7864C131.329 10.8896 131.681 11.4208 131.579 11.9692H131.578Z" fill="black"/>
<path d="M147.33 18.6568V3H150.401V9.34088C150.472 9.22528 150.54 9.11637 150.603 9.0151C150.667 8.91382 150.735 8.82688 150.806 8.75428C151.133 8.4218 151.52 8.16098 151.968 7.97277C152.416 7.78456 152.917 7.69093 153.471 7.69093C154.879 7.69093 156.037 8.21926 156.947 9.27592C157.858 10.3326 158.313 11.6863 158.313 13.3363C158.313 14.9862 157.858 16.3037 156.947 17.3747C156.037 18.4466 154.879 18.9817 153.471 18.9817C152.334 18.9817 151.452 18.6492 150.828 17.9833C150.713 17.8533 150.635 17.7521 150.593 17.6795C150.551 17.6069 150.486 17.4693 150.401 17.2667V18.6568H147.33ZM152.682 10.3402C151.929 10.3402 151.317 10.6154 150.848 11.1657C150.379 11.716 150.145 12.4545 150.145 13.3802C150.145 14.306 150.386 14.9729 150.87 15.5079C151.353 16.0429 151.993 16.3114 152.789 16.3114C153.529 16.3114 154.125 16.04 154.58 15.4974C155.035 14.9547 155.262 14.242 155.262 13.3583C155.262 12.4745 155.028 11.7332 154.559 11.1762C154.09 10.6192 153.464 10.3402 152.682 10.3402Z" fill="black"/>
<path d="M169.348 14.3137H161.501C161.615 15.0522 161.903 15.635 162.365 16.062C162.827 16.4891 163.392 16.7031 164.06 16.7031C164.558 16.7031 165.066 16.5512 165.585 16.2474C166.104 15.9435 166.526 15.5451 166.853 15.0531L169.028 16.5731C168.346 17.4273 167.621 18.0425 166.853 18.4189C166.086 18.7954 165.162 18.9836 164.081 18.9836C162.418 18.9836 161.07 18.4734 160.04 17.453C159.009 16.4327 158.494 15.1047 158.494 13.4681C158.494 11.8316 159.013 10.4424 160.051 9.34184C161.088 8.24219 162.404 7.69189 163.996 7.69189C165.588 7.69189 166.882 8.22786 167.877 9.29885C168.871 10.3698 169.37 11.7742 169.37 13.5121L169.348 14.3156V14.3137ZM163.975 9.94851C162.624 9.94851 161.8 10.73 161.501 12.294H166.342C166.257 11.5698 166.004 10.9985 165.585 10.5791C165.166 10.1596 164.629 9.94946 163.975 9.94946V9.94851Z" fill="black"/>
<path d="M169.131 10.5791V7.99475H170.687V5.34547H173.736V7.99475H176.316V10.5791H173.736V15.3779C173.836 16.0878 174.277 16.4422 175.058 16.4422C175.357 16.4422 175.712 16.3773 176.124 16.2473L176.551 18.5489C175.641 18.8097 174.824 18.9396 174.099 18.9396C172.897 18.9396 171.978 18.5422 171.343 17.7454C171.075 17.3976 170.898 17.0546 170.814 16.7136C170.73 16.3735 170.687 15.8203 170.687 15.0522V10.5791H169.131Z" fill="black"/>
<path d="M175.5 10.5791V7.99475H177.056V5.34547H180.106V7.99475H182.686V10.5791H180.106V15.3779C180.205 16.0878 180.646 16.4422 181.427 16.4422C181.726 16.4422 182.081 16.3773 182.493 16.2473L182.92 18.5489C182.01 18.8097 181.193 18.9396 180.468 18.9396C179.266 18.9396 178.347 18.5422 177.712 17.7454C177.444 17.3976 177.268 17.0546 177.183 16.7136C177.099 16.3735 177.056 15.8203 177.056 15.0522V10.5791H175.5Z" fill="black"/>
<path d="M193.948 14.3137H186.101C186.214 15.0522 186.502 15.635 186.965 16.062C187.426 16.4891 187.992 16.7031 188.66 16.7031C189.157 16.7031 189.666 16.5512 190.185 16.2474C190.703 15.9435 191.126 15.5451 191.453 15.0531L193.628 16.5731C192.946 17.4273 192.22 18.0425 191.453 18.4189C190.686 18.7954 189.761 18.9836 188.681 18.9836C187.017 18.9836 185.67 18.4734 184.64 17.453C183.609 16.4327 183.094 15.1047 183.094 13.4681C183.094 11.8316 183.613 10.4424 184.65 9.34184C185.688 8.24219 187.003 7.69189 188.595 7.69189C190.187 7.69189 191.481 8.22786 192.477 9.29885C193.471 10.3698 193.969 11.7742 193.969 13.5121L193.948 14.3156V14.3137ZM188.574 9.94851C187.223 9.94851 186.399 10.73 186.1 12.294H190.941C190.855 11.5698 190.603 10.9985 190.184 10.5791C189.764 10.1596 189.228 9.94946 188.574 9.94946V9.94851Z" fill="black"/>
<path d="M194.511 18.6568V7.99475H197.581V9.79755C197.766 9.13165 198.107 8.61766 198.605 8.25557C199.102 7.89347 199.735 7.71291 200.503 7.71291C200.688 7.71291 200.847 7.72055 200.982 7.73488C201.117 7.74921 201.299 7.78552 201.526 7.8438L200.971 10.8619C200.587 10.7606 200.225 10.7099 199.884 10.7099C199.144 10.7099 198.554 10.9775 198.113 11.5134C197.914 11.7599 197.776 12.0236 197.698 12.3064C197.619 12.5892 197.58 12.9761 197.58 13.4681V18.6578H194.51L194.511 18.6568Z" fill="black"/>
<path d="M201.951 18.6568V3H205.022V18.6568H201.951Z" fill="black"/>
<path d="M213.769 9.4498V7.99475H216.839V18.6568H213.769V17.2887C213.115 18.418 212.063 18.9826 210.612 18.9826C209.162 18.9826 208.05 18.4572 207.147 17.4053C206.244 16.3534 205.793 15.0082 205.793 13.3697C205.793 11.7313 206.252 10.4358 207.168 9.35521C208.085 8.27467 209.226 7.73488 210.591 7.73488C211.714 7.73488 212.638 8.10366 213.363 8.84217L213.769 9.4498ZM211.316 10.3182C210.591 10.3182 209.983 10.6068 209.493 11.1819C209.003 11.758 208.758 12.4831 208.758 13.3583C208.758 14.2334 209 14.9767 209.483 15.5451C209.966 16.1136 210.598 16.3983 211.381 16.3983C212.163 16.3983 212.774 16.1136 213.257 15.5451C213.74 14.9767 213.982 14.2477 213.982 13.3583C213.982 12.4688 213.726 11.7762 213.215 11.1934C212.703 10.6096 212.07 10.3182 211.317 10.3182H211.316Z" fill="black"/>
<path d="M225.485 9.38387V3H228.556V18.6568H225.485V17.2018C224.974 18.3893 223.915 18.9826 222.308 18.9826C220.886 18.9826 219.728 18.4619 218.832 17.4196C217.936 16.3773 217.488 15.0311 217.488 13.3812C217.488 11.7313 217.957 10.4281 218.896 9.34184C219.834 8.25652 220.999 7.71291 222.392 7.71291C223.785 7.71291 224.859 8.27085 225.484 9.38483L225.485 9.38387ZM223.118 10.3402C222.379 10.3402 221.767 10.6259 221.284 11.1981C220.801 11.7695 220.559 12.4975 220.559 13.3802C220.559 14.263 220.801 14.9624 221.284 15.5193C221.767 16.0763 222.386 16.3553 223.14 16.3553C223.894 16.3553 224.512 16.0763 224.995 15.5193C225.478 14.9624 225.72 14.242 225.72 13.3583C225.72 12.4745 225.478 11.7513 224.995 11.1867C224.512 10.6221 223.886 10.3402 223.118 10.3402Z" fill="black"/>
<path d="M228.848 7.99474H232.111L233.966 13.1194C234.009 13.279 234.058 13.4423 234.116 13.6086C234.172 13.7748 234.215 13.9382 234.243 14.0977C234.271 14.2573 234.303 14.434 234.339 14.6299C234.375 14.8257 234.392 15.0245 234.392 15.227L234.584 14.0977L234.861 13.1424L236.696 7.9957H240.001L235.374 19.423L235.118 19.9867C234.861 20.5791 234.659 21.0052 234.51 21.266C234.36 21.5258 234.186 21.7714 233.987 22.0026C233.703 22.2921 233.305 22.53 232.793 22.7182C232.281 22.9064 231.762 23 231.236 23C230.653 23 230.085 22.8987 229.531 22.6962L230.021 20.1119C230.348 20.2418 230.661 20.3068 230.96 20.3068C231.415 20.3068 231.763 20.1692 232.005 19.895C232.247 19.6199 232.523 19.0208 232.836 18.0951L228.849 7.99379L228.848 7.99474Z" fill="black"/>
</g>
<path d="M25.707 8.70605L21.354 13.0591L25.707 17.4121" stroke="#327455" stroke-width="1.2" stroke-linecap="round" stroke-linejoin="round"/>
<defs>
<clipPath id="clip0_1769_559">
<rect width="128" height="20" fill="white" transform="translate(112 3)"/>
</clipPath>
</defs>
</svg>
