<svg width="107" height="74" viewBox="0 0 107 74" fill="none" xmlns="http://www.w3.org/2000/svg">
<path d="M5.69818 42.1798C2.64286 39.4024 2.64286 34.5976 5.69819 31.8202L23.5415 15.6003C28.0382 11.5127 35.25 14.7032 35.25 20.7801L35.25 53.2199C35.25 59.2968 28.0382 62.4872 23.5415 58.3997L5.69818 42.1798Z" fill="white"/>
<rect x="22" y="13" width="85" height="48" rx="8" fill="white"/>
<path d="M39.07 46.5V30.198L39.408 28.3H42.476V46.5H39.07ZM35.222 34.046V30.822C35.6553 30.8567 36.1233 30.7527 36.626 30.51C37.1287 30.25 37.6227 29.9207 38.108 29.522C38.6107 29.106 39.044 28.69 39.408 28.274L41.67 30.484C41.046 31.1773 40.3873 31.81 39.694 32.382C39.0007 32.9367 38.2813 33.37 37.536 33.682C36.808 33.994 36.0367 34.1153 35.222 34.046ZM52.7428 46.812C51.5121 46.812 50.4634 46.5953 49.5968 46.162C48.7474 45.7113 48.0454 45.096 47.4908 44.316C46.9534 43.536 46.5548 42.6347 46.2948 41.612C46.0521 40.572 45.9308 39.454 45.9308 38.258C45.9308 36.8713 46.0781 35.5627 46.3728 34.332C46.6674 33.084 47.1094 31.9833 47.6988 31.03C48.3054 30.0767 49.0768 29.3313 50.0128 28.794C50.9488 28.2567 52.0754 27.988 53.3928 27.988C54.3461 27.988 55.2734 28.1267 56.1748 28.404C57.0934 28.6813 57.9168 29.08 58.6448 29.6L56.8768 32.2C56.3394 31.8187 55.7588 31.5413 55.1348 31.368C54.5281 31.1947 53.9648 31.108 53.4448 31.108C52.1101 31.108 51.0614 31.6973 50.2988 32.876C49.5361 34.0547 49.1721 35.918 49.2068 38.466L48.5048 37.972C48.9034 37.0187 49.5188 36.256 50.3508 35.684C51.1828 35.112 52.1708 34.826 53.3148 34.826C54.4761 34.826 55.4988 35.0947 56.3828 35.632C57.2841 36.1693 57.9861 36.906 58.4888 37.842C59.0088 38.7607 59.2688 39.792 59.2688 40.936C59.2688 42.0627 59.0001 43.0767 58.4628 43.978C57.9254 44.862 57.1628 45.5553 56.1748 46.058C55.2041 46.5607 54.0601 46.812 52.7428 46.812ZM52.7428 43.796C53.3148 43.796 53.8261 43.666 54.2768 43.406C54.7274 43.146 55.0828 42.7907 55.3428 42.34C55.6028 41.8893 55.7328 41.3693 55.7328 40.78C55.7328 40.1907 55.6028 39.6707 55.3428 39.22C55.0828 38.752 54.7274 38.388 54.2768 38.128C53.8261 37.8507 53.3148 37.712 52.7428 37.712C52.1708 37.712 51.6508 37.8507 51.1828 38.128C50.7321 38.388 50.3768 38.752 50.1168 39.22C49.8568 39.6707 49.7268 40.1907 49.7268 40.78C49.7268 41.3693 49.8568 41.8893 50.1168 42.34C50.3768 42.7907 50.7321 43.146 51.1828 43.406C51.6508 43.666 52.1708 43.796 52.7428 43.796Z" fill="#292424"/>
<path d="M66.896 34.876L66.704 32.812L70.64 28.6H72.764L66.896 34.876ZM65.912 37V28.6H67.532V37H65.912ZM70.868 37L67.52 32.728L68.708 31.744L72.896 37H70.868ZM76.2049 37.144C75.5809 37.144 75.0249 37.012 74.5369 36.748C74.0489 36.476 73.6689 36.104 73.3969 35.632C73.1249 35.152 72.9889 34.608 72.9889 34C72.9889 33.384 73.1249 32.84 73.3969 32.368C73.6689 31.896 74.0449 31.528 74.5249 31.264C75.0049 30.992 75.5569 30.856 76.1809 30.856C76.7809 30.856 77.3289 31.004 77.8249 31.3C78.3209 31.596 78.6809 32.024 78.9049 32.584L77.4169 33.112C77.3049 32.88 77.1289 32.696 76.8889 32.56C76.6569 32.416 76.3969 32.344 76.1089 32.344C75.8129 32.344 75.5529 32.416 75.3289 32.56C75.1049 32.696 74.9289 32.888 74.8009 33.136C74.6729 33.384 74.6089 33.672 74.6089 34C74.6089 34.328 74.6729 34.616 74.8009 34.864C74.9289 35.104 75.1089 35.296 75.3409 35.44C75.5729 35.584 75.8369 35.656 76.1329 35.656C76.4209 35.656 76.6809 35.58 76.9129 35.428C77.1529 35.276 77.3289 35.076 77.4409 34.828L78.9409 35.356C78.7089 35.924 78.3449 36.364 77.8489 36.676C77.3609 36.988 76.8129 37.144 76.2049 37.144ZM75.4249 30.256V30.22L76.9969 28.6H78.4489L76.9609 30.256H75.4249ZM75.3169 30.256L73.8289 28.6H75.2809L76.8529 30.22V30.256H75.3169Z" fill="#292424"/>
<path d="M65.45 46V45.36L68.4 41.7H65.45V41H69.44V41.62L66.48 45.3H69.46V46H65.45ZM73.6921 46L73.6521 45.18V43.36C73.6521 42.9667 73.6088 42.6433 73.5221 42.39C73.4354 42.13 73.2988 41.9333 73.1121 41.8C72.9254 41.6667 72.6821 41.6 72.3821 41.6C72.1088 41.6 71.8721 41.6567 71.6721 41.77C71.4788 41.8767 71.3188 42.05 71.1921 42.29L70.4721 42.01C70.5988 41.7767 70.7521 41.5767 70.9321 41.41C71.1121 41.2367 71.3221 41.1067 71.5621 41.02C71.8021 40.9267 72.0754 40.88 72.3821 40.88C72.8488 40.88 73.2321 40.9733 73.5321 41.16C73.8388 41.34 74.0688 41.61 74.2221 41.97C74.3754 42.3233 74.4488 42.7633 74.4421 43.29L74.4321 46H73.6921ZM72.1921 46.12C71.6054 46.12 71.1454 45.9867 70.8121 45.72C70.4854 45.4467 70.3221 45.07 70.3221 44.59C70.3221 44.0833 70.4888 43.6967 70.8221 43.43C71.1621 43.1567 71.6354 43.02 72.2421 43.02H73.6721V43.69H72.4221C71.9554 43.69 71.6221 43.7667 71.4221 43.92C71.2288 44.0733 71.1321 44.2933 71.1321 44.58C71.1321 44.84 71.2288 45.0467 71.4221 45.2C71.6154 45.3467 71.8854 45.42 72.2321 45.42C72.5188 45.42 72.7688 45.36 72.9821 45.24C73.1954 45.1133 73.3588 44.9367 73.4721 44.71C73.5921 44.4767 73.6521 44.2033 73.6521 43.89H73.9921C73.9921 44.57 73.8388 45.1133 73.5321 45.52C73.2254 45.92 72.7788 46.12 72.1921 46.12ZM81.8805 46L81.8405 45.07V39H82.6405V46H81.8805ZM80.1505 46.12C79.7038 46.12 79.3105 46.01 78.9705 45.79C78.6305 45.57 78.3638 45.2633 78.1705 44.87C77.9838 44.47 77.8905 44.0133 77.8905 43.5C77.8905 42.98 77.9838 42.5233 78.1705 42.13C78.3638 41.7367 78.6305 41.43 78.9705 41.21C79.3105 40.99 79.7038 40.88 80.1505 40.88C80.5705 40.88 80.9371 40.99 81.2505 41.21C81.5705 41.43 81.8171 41.7367 81.9905 42.13C82.1638 42.5233 82.2505 42.98 82.2505 43.5C82.2505 44.0133 82.1638 44.47 81.9905 44.87C81.8171 45.2633 81.5705 45.57 81.2505 45.79C80.9371 46.01 80.5705 46.12 80.1505 46.12ZM80.3305 45.39C80.6238 45.39 80.8838 45.31 81.1105 45.15C81.3371 44.99 81.5138 44.7667 81.6405 44.48C81.7738 44.1933 81.8405 43.8667 81.8405 43.5C81.8405 43.1333 81.7738 42.8067 81.6405 42.52C81.5138 42.2333 81.3371 42.01 81.1105 41.85C80.8838 41.69 80.6205 41.61 80.3205 41.61C80.0071 41.61 79.7271 41.69 79.4805 41.85C79.2405 42.01 79.0505 42.2333 78.9105 42.52C78.7705 42.8067 78.7005 43.1333 78.7005 43.5C78.7005 43.8667 78.7705 44.1933 78.9105 44.48C79.0505 44.7667 79.2438 44.99 79.4905 45.15C79.7371 45.31 80.0171 45.39 80.3305 45.39ZM86.2298 46.12C85.7432 46.12 85.3132 46.01 84.9398 45.79C84.5665 45.5633 84.2732 45.2533 84.0598 44.86C83.8532 44.4667 83.7498 44.0133 83.7498 43.5C83.7498 42.9867 83.8532 42.5333 84.0598 42.14C84.2732 41.7467 84.5632 41.44 84.9298 41.22C85.3032 40.9933 85.7298 40.88 86.2098 40.88C86.6765 40.88 87.0798 40.9967 87.4198 41.23C87.7598 41.4567 88.0232 41.7767 88.2098 42.19C88.3965 42.6033 88.4898 43.09 88.4898 43.65H84.3598L84.5598 43.48C84.5598 43.88 84.6298 44.2233 84.7698 44.51C84.9165 44.7967 85.1198 45.0167 85.3798 45.17C85.6398 45.3167 85.9365 45.39 86.2698 45.39C86.6232 45.39 86.9198 45.3067 87.1598 45.14C87.4065 44.9733 87.5965 44.7533 87.7298 44.48L88.4198 44.83C88.2932 45.09 88.1232 45.3167 87.9098 45.51C87.7032 45.7033 87.4565 45.8533 87.1698 45.96C86.8898 46.0667 86.5765 46.12 86.2298 46.12ZM84.6098 43.14L84.3998 42.98H87.8498L87.6398 43.15C87.6398 42.83 87.5765 42.5533 87.4498 42.32C87.3232 42.0867 87.1532 41.9067 86.9398 41.78C86.7265 41.6533 86.4798 41.59 86.1998 41.59C85.9265 41.59 85.6665 41.6533 85.4198 41.78C85.1798 41.9067 84.9832 42.0867 84.8298 42.32C84.6832 42.5467 84.6098 42.82 84.6098 43.14ZM89.4988 46V41H90.2488L90.2988 41.92V46H89.4988ZM93.0088 46V43.44H93.8088V46H93.0088ZM93.0088 43.44C93.0088 42.9467 92.9522 42.57 92.8388 42.31C92.7255 42.05 92.5688 41.8733 92.3688 41.78C92.1688 41.68 91.9422 41.63 91.6888 41.63C91.2488 41.63 90.9055 41.7867 90.6588 42.1C90.4188 42.4067 90.2988 42.8433 90.2988 43.41H89.9088C89.9088 42.8833 89.9855 42.43 90.1388 42.05C90.2922 41.67 90.5155 41.38 90.8088 41.18C91.1022 40.98 91.4555 40.88 91.8688 40.88C92.2622 40.88 92.6022 40.96 92.8888 41.12C93.1822 41.2733 93.4088 41.52 93.5688 41.86C93.7355 42.2 93.8155 42.6467 93.8088 43.2V43.44H93.0088Z" fill="#292424"/>
</svg>
