<svg width="48" height="48" viewBox="0 0 48 48" fill="none" xmlns="http://www.w3.org/2000/svg">
<rect width="48" height="48" rx="10" fill="#F6F6F6"/>
<path d="M28.2136 12H19.7864C18.1227 12 16.7864 13.3364 16.7864 15V33C16.7864 34.6636 18.15 36 19.7864 36H28.2136C29.8773 36 31.2137 34.6636 31.2137 33V15C31.2137 13.3364 29.8773 12 28.2136 12ZM24.0136 34.0636C23.25 34.0636 22.65 33.4636 22.65 32.7C22.65 31.9364 23.25 31.3364 24.0136 31.3364C24.7773 31.3364 25.3773 31.9364 25.3773 32.7C25.3773 33.4636 24.7773 34.0636 24.0136 34.0636ZM29.85 29.8909H18.15V16.0091H29.85V29.8909Z" fill="#949BA1"/>
</svg>
