<svg width="48" height="48" viewBox="0 0 48 48" fill="none" xmlns="http://www.w3.org/2000/svg">
<rect width="48" height="48" rx="10" fill="#E6E6E6"/>
<g clip-path="url(#clip0_1946_105)">
<path d="M35.5606 33.4394L29.6198 27.4986C30.8012 25.8856 31.5 23.898 31.5 21.75C31.5 16.3739 27.1261 12 21.75 12C16.3739 12 12 16.3739 12 21.75C12 27.1261 16.3739 31.5 21.75 31.5C23.898 31.5 25.8856 30.8012 27.4986 29.6198L33.4394 35.5606C33.7322 35.8536 34.1161 36 34.5 36C34.8839 36 35.2678 35.8536 35.5606 35.5606C36.1464 34.9749 36.1464 34.0251 35.5606 33.4394ZM15 21.75C15 18.028 18.028 15 21.75 15C25.472 15 28.5 18.028 28.5 21.75C28.5 25.472 25.472 28.5 21.75 28.5C18.028 28.5 15 25.472 15 21.75Z" fill="#949BA1"/>
</g>
<defs>
<clipPath id="clip0_1946_105">
<rect width="24" height="24" fill="white" transform="translate(12 12)"/>
</clipPath>
</defs>
</svg>
