<svg width="48" height="48" viewBox="0 0 48 48" fill="none" xmlns="http://www.w3.org/2000/svg">
<rect width="48" height="48" rx="10" fill="#F6F6F6"/>
<g clip-path="url(#clip0_1_204)">
<path d="M24.5062 23.5165C24.5023 23.5124 24.5012 23.5069 24.4971 23.5029L20.4845 19.4902V16.9688C20.4845 16.782 20.4103 16.6035 20.2785 16.4716L16.0597 12.2061C15.8593 12.0056 15.5564 11.9445 15.2934 12.0537C15.0305 12.1621 14.8595 12.419 14.8595 12.7032V14.8126H12.7032C12.419 14.8126 12.1622 14.9835 12.0537 15.2465C11.9445 15.5095 12.005 15.8116 12.2061 16.0128L16.4718 20.2784C16.6036 20.4103 16.7821 20.4844 16.9689 20.4844H19.4902L23.5029 24.4971C23.507 24.5011 23.5124 24.5023 23.5166 24.5062C23.7903 24.7675 24.2061 24.771 24.4836 24.5062C24.7757 24.2274 24.7691 23.7919 24.5062 23.5165Z" fill="#949BA1"/>
<path d="M24.0001 12.0001C22.2009 12.0001 20.4999 12.4579 18.9681 13.1728L21.125 15.3297C22.0303 15.0287 22.9951 14.8595 24.0001 14.8595C29.0401 14.8594 33.1406 18.9601 33.1406 24C33.1406 29.04 29.0401 33.1406 24.0001 33.1406C18.9601 33.1406 14.8595 29.04 14.8595 24C14.8595 22.995 15.0287 22.0302 15.3297 21.1249L13.1728 18.968C12.4579 20.4999 12.0002 22.2009 12.0002 24C12.0002 30.5911 17.409 36 24.0001 36C30.5911 36 36 30.5911 36 24C36 17.409 30.5912 12.0001 24.0001 12.0001Z" fill="#949BA1"/>
<path d="M24 17.6719C23.2568 17.6719 22.5537 17.8242 21.8907 18.0606V18.9078L23.5162 20.5333C23.6758 20.511 23.8343 20.4844 24 20.4844C25.9385 20.4844 27.5157 22.0616 27.5157 24C27.5157 25.9384 25.9385 27.5156 24 27.5156C22.0616 27.5156 20.4844 25.9384 20.4844 24C20.4844 23.8342 20.511 23.6757 20.5334 23.5161L18.9079 21.8906H18.0607C17.8243 22.5536 17.672 23.2567 17.672 24C17.672 27.4895 20.5106 30.328 24 30.328C27.4895 30.328 30.3282 27.4895 30.3282 24C30.3282 20.5104 27.4896 17.6719 24 17.6719Z" fill="#949BA1"/>
</g>
<defs>
<clipPath id="clip0_1_204">
<rect width="24" height="24" fill="white" transform="translate(12 12)"/>
</clipPath>
</defs>
</svg>
