<svg width="48" height="48" viewBox="0 0 48 48" fill="none" xmlns="http://www.w3.org/2000/svg">
<rect width="48" height="48" rx="10" fill="#F6F6F6"/>
<g clip-path="url(#clip0_1_235)">
<path d="M26.25 12H14.75C13.23 12 12 13.23 12 14.75V30.25C12 31.77 13.23 33 14.75 33H22.13L22.35 31.77C22.45 31.21 22.71 30.71 23.11 30.3L29 24.42V14.75C29 13.23 27.77 12 26.25 12ZM16 16H20C20.55 16 21 16.45 21 17C21 17.55 20.55 18 20 18H16C15.45 18 15 17.55 15 17C15 16.45 15.45 16 16 16ZM21 26H16C15.45 26 15 25.55 15 25C15 24.45 15.45 24 16 24H21C21.55 24 22 24.45 22 25C22 25.55 21.55 26 21 26ZM25 22H16C15.45 22 15 21.55 15 21C15 20.45 15.45 20 16 20H25C25.55 20 26 20.45 26 21C26 21.55 25.55 22 25 22Z" fill="#949BA1"/>
<path d="M24.528 36C24.331 36 24.139 35.922 23.998 35.78C23.825 35.607 23.747 35.361 23.79 35.119L24.32 32.114C24.346 31.963 24.42 31.823 24.528 31.714L31.953 24.29C32.865 23.376 33.761 23.623 34.251 24.113L35.488 25.35C36.171 26.032 36.171 27.142 35.488 27.825L28.063 35.25C27.955 35.359 27.815 35.432 27.663 35.458L24.658 35.988C24.615 35.996 24.571 36 24.528 36Z" fill="#949BA1"/>
</g>
<defs>
<clipPath id="clip0_1_235">
<rect width="24" height="24" fill="white" transform="translate(12 12)"/>
</clipPath>
</defs>
</svg>
