<svg width="48" height="48" viewBox="0 0 48 48" fill="none" xmlns="http://www.w3.org/2000/svg">
<rect width="48" height="48" rx="10" fill="#E6E6E6"/>
<g clip-path="url(#clip0_1946_123)">
<path d="M35.7939 17.4769L30.522 12.205C30.2601 11.9326 29.7894 11.9327 29.5276 12.205L24.2558 17.4769C24.0547 17.6779 23.9945 17.9804 24.1033 18.2431C24.2122 18.5059 24.4686 18.6772 24.7529 18.6772H27.0623V35.2959C27.0623 35.6842 27.3771 35.999 27.7654 35.999H32.2842C32.6725 35.999 32.9873 35.6842 32.9873 35.2959V18.6772H35.2967C35.5811 18.6772 35.8375 18.5059 35.9463 18.2431C36.0551 17.9804 35.995 17.678 35.7939 17.4769Z" fill="#949BA1"/>
<path d="M24.7531 21.7898H20.2344C19.8461 21.7898 19.5312 22.1046 19.5312 22.4929V35.296C19.5312 35.6843 19.8461 35.9992 20.2344 35.9992H24.7531C25.1414 35.9992 25.4562 35.6843 25.4562 35.296V22.4929C25.4562 22.1046 25.1414 21.7898 24.7531 21.7898Z" fill="#949BA1"/>
<path d="M17.2219 27.8147H12.7031C12.3148 27.8147 12 28.1295 12 28.5178V35.2959C12 35.6843 12.3148 35.9991 12.7031 35.9991H17.2219C17.6102 35.9991 17.925 35.6843 17.925 35.2959V28.5178C17.925 28.1295 17.6102 27.8147 17.2219 27.8147Z" fill="#949BA1"/>
</g>
<defs>
<clipPath id="clip0_1946_123">
<rect width="24" height="24" fill="white" transform="translate(12 12)"/>
</clipPath>
</defs>
</svg>
