<svg width="48" height="48" viewBox="0 0 48 48" fill="none" xmlns="http://www.w3.org/2000/svg">
<rect width="48" height="48" rx="10" fill="#F6F6F6"/>
<g clip-path="url(#clip0_1_217)">
<path fill-rule="evenodd" clip-rule="evenodd" d="M35.6248 23.9997C35.6248 27.1046 34.4156 30.0237 32.2199 32.2194C30.0239 34.4155 27.1047 35.6249 24.0002 35.6249C23.6119 35.6249 23.2971 35.3101 23.2971 34.9218C23.2971 34.5335 23.6119 34.2187 24.0002 34.2187C26.7291 34.2187 29.2951 33.1555 31.2255 31.2251C35.2096 27.241 35.2096 20.7584 31.2255 16.7743C27.2411 12.7899 20.7579 12.79 16.7735 16.7743C16.7429 16.8049 16.7129 16.8359 16.6827 16.8669H17.5705C17.9588 16.8669 18.2736 17.1817 18.2736 17.57C18.2736 17.9584 17.9588 18.2732 17.5705 18.2732H14.9834C14.5951 18.2732 14.2803 17.9584 14.2803 17.57V14.983C14.2803 14.5947 14.5951 14.2799 14.9834 14.2799C15.3718 14.2799 15.6866 14.5947 15.6866 14.983V15.8743C15.7174 15.8428 15.748 15.8111 15.7791 15.78C17.9748 13.5844 20.8942 12.3751 23.9996 12.3751C27.1049 12.3751 30.0243 13.5843 32.22 15.78C34.4156 17.9757 35.6248 20.8947 35.6248 23.9997H35.6248ZM16.6893 23.9997C16.6893 19.9685 19.969 16.6888 24.0002 16.6888C28.0314 16.6888 31.311 19.9685 31.311 23.9997C31.311 28.031 28.0314 31.3106 24.0002 31.3106C19.9689 31.3106 16.6893 28.031 16.6893 23.9997ZM23.2971 23.9997C23.2971 24.2509 23.431 24.483 23.6485 24.6086L26.0296 25.9838C26.1404 26.0478 26.2612 26.0781 26.3806 26.0781C26.6235 26.0781 26.8599 25.952 26.9901 25.7266C27.1843 25.3903 27.0692 24.9603 26.7329 24.7661L24.7033 23.5939V20.2899C24.7033 19.9016 24.3885 19.5868 24.0002 19.5868C23.6119 19.5868 23.2971 19.9016 23.2971 20.2899V23.9997V23.9997ZM13.781 23.9997C13.781 23.613 13.4661 23.2968 13.0781 23.2968C12.6901 23.2968 12.3752 23.613 12.3752 23.9997C12.3752 24.3864 12.6914 24.7026 13.0781 24.7026C13.4647 24.7026 13.781 24.3864 13.781 23.9997ZM21.3547 33.8695C20.98 33.7698 20.5947 33.9917 20.4937 34.3677C20.394 34.7425 20.6159 35.1278 20.9906 35.2287C21.3667 35.3284 21.752 35.1065 21.8516 34.7305C21.9526 34.3557 21.7307 33.9704 21.3547 33.8695ZM18.8912 32.849C18.5537 32.655 18.1245 32.7706 17.9306 33.1068C17.7366 33.4429 17.8508 33.8734 18.187 34.0674C18.5232 34.2614 18.9537 34.1458 19.1477 33.8097C19.3417 33.4735 19.2274 33.043 18.8912 32.849ZM15.7794 31.2253C15.5057 31.5004 15.5057 31.9455 15.7794 32.2192C16.0544 32.4942 16.4996 32.4942 16.7746 32.2192C17.0483 31.9455 17.0483 31.5004 16.7746 31.2253C16.4995 30.9502 16.0544 30.9502 15.7794 31.2253ZM14.1902 28.8522C13.854 29.0462 13.7384 29.4754 13.9325 29.8115C14.1264 30.1477 14.557 30.2633 14.8931 30.0693C15.2293 29.8753 15.3449 29.4448 15.1509 29.1087C14.9569 28.7725 14.5264 28.6569 14.1902 28.8522ZM14.1291 26.6439C14.0294 26.2692 13.6441 26.0473 13.2681 26.1469C12.8934 26.2479 12.6702 26.6333 12.7711 27.0079C12.8721 27.384 13.2575 27.6059 13.6321 27.5062C14.0069 27.4053 14.2301 27.0199 14.1291 26.6439ZM13.2681 21.8525C13.6441 21.9522 14.0294 21.7302 14.1291 21.3556C14.2301 20.9795 14.0069 20.5942 13.6322 20.4932C13.2575 20.3936 12.8722 20.6155 12.7712 20.9915C12.6702 21.3662 12.8934 21.7515 13.2682 21.8525H13.2681Z" fill="#949BA1"/>
</g>
<defs>
<clipPath id="clip0_1_217">
<rect width="24" height="24" fill="white" transform="translate(12 12)"/>
</clipPath>
</defs>
</svg>
