<svg width="48" height="48" viewBox="0 0 48 48" fill="none" xmlns="http://www.w3.org/2000/svg">
<rect width="48" height="48" rx="10" fill="#E6E6E6"/>
<g clip-path="url(#clip0_1946_112)">
<path d="M21.8904 19.2656C16.4626 19.2656 12 22.9981 12 27.5862C12 29.4202 12.7114 31.2841 14.016 32.7287L12.1738 34.8339C11.9925 35.0413 11.9485 35.3359 12.0632 35.5872C12.1772 35.8385 12.4272 35.9999 12.7032 35.9999H22.5936C26.6011 35.9999 31.7808 32.5489 31.7808 27.5862C31.7808 22.9981 27.3182 19.2656 21.8904 19.2656ZM17.6249 28.875C16.8497 28.875 16.2187 28.244 16.2187 27.4688C16.2187 26.6936 16.8497 26.0626 17.6249 26.0626C18.4001 26.0626 19.0311 26.6936 19.0311 27.4688C19.0312 28.244 18.4001 28.875 17.6249 28.875ZM21.8904 28.875C21.1152 28.875 20.4842 28.244 20.4842 27.4688C20.4842 26.6936 21.1153 26.0626 21.8904 26.0626C22.6656 26.0626 23.2966 26.6936 23.2966 27.4688C23.2966 28.244 22.6657 28.875 21.8904 28.875ZM26.156 28.875C25.3808 28.875 24.7498 28.244 24.7498 27.4688C24.7498 26.6936 25.3808 26.0626 26.156 26.0626C26.9311 26.0626 27.5622 26.6936 27.5622 27.4688C27.5622 28.244 26.9312 28.875 26.156 28.875Z" fill="#949BA1"/>
<path d="M35.8299 26.3075L34.1745 24.376C35.3561 23.0426 35.9995 21.4166 35.9995 19.7344C35.9995 15.4698 31.899 12.0002 26.8591 12.0002C22.3017 12.0002 18.4298 14.8404 17.7461 18.537C19.0177 18.1049 20.4438 17.8592 21.8905 17.8592C28.0477 17.8592 33.1063 22.1598 33.1803 27.4686H35.2964C35.897 27.4687 36.2196 26.7614 35.8299 26.3075Z" fill="#949BA1"/>
</g>
<defs>
<clipPath id="clip0_1946_112">
<rect width="24" height="24" fill="white" transform="translate(12 12)"/>
</clipPath>
</defs>
</svg>
