<svg width="48" height="48" viewBox="0 0 48 48" fill="none" xmlns="http://www.w3.org/2000/svg">
<rect width="48" height="48" rx="10" fill="#E6E6E6"/>
<g clip-path="url(#clip0_1_2661)">
<path d="M24 12C17.3707 12 12 17.3707 12 24C12 30.6293 17.3707 36 24 36C30.6293 36 36 30.6293 36 24C36 17.3707 30.6293 12 24 12ZM31.5307 22.64L27.792 26.1653L28.9333 30.256C29.1627 31.0827 28.7574 31.3974 28.016 30.9547L24 28.5333L19.9787 30.9493C19.2426 31.392 18.8107 31.0773 19.0187 30.24L20.1227 25.792L16.5013 22.5973C15.856 22.0267 16.032 21.568 16.8907 21.568H21.2906L23.3813 16.704C23.7226 15.9147 24.2666 15.9147 24.5973 16.7093L26.6399 21.568H31.0986C31.9626 21.5733 32.1547 22.0533 31.5307 22.64Z" fill="#949BA1"/>
</g>
<defs>
<clipPath id="clip0_1_2661">
<rect width="24" height="24" fill="white" transform="translate(12 12)"/>
</clipPath>
</defs>
</svg>
