<svg width="48" height="48" viewBox="0 0 48 48" fill="none" xmlns="http://www.w3.org/2000/svg">
<rect width="48" height="48" rx="10" fill="#E6E6E6"/>
<path d="M24 13C21.8244 13 19.6977 13.6451 17.8887 14.8538C16.0798 16.0625 14.6699 17.7805 13.8373 19.7905C13.0048 21.8005 12.7869 24.0122 13.2114 26.146C13.6358 28.2798 14.6835 30.2398 16.2218 31.7782C17.7602 33.3166 19.7202 34.3642 21.854 34.7886C23.9878 35.2131 26.1995 34.9952 28.2095 34.1627C30.2195 33.3301 31.9375 31.9202 33.1462 30.1113C34.3549 28.3023 35 26.1756 35 24C34.9966 21.0837 33.8365 18.2878 31.7744 16.2256C29.7122 14.1635 26.9163 13.0034 24 13ZM27.707 27.707C27.5195 27.8945 27.2652 27.9998 27 27.9998C26.7348 27.9998 26.4805 27.8945 26.293 27.707L23.293 24.707C23.1055 24.5195 23.0001 24.2652 23 24V18C23 17.7348 23.1054 17.4804 23.2929 17.2929C23.4804 17.1054 23.7348 17 24 17C24.2652 17 24.5196 17.1054 24.7071 17.2929C24.8946 17.4804 25 17.7348 25 18V23.586L27.707 26.293C27.8945 26.4805 27.9998 26.7348 27.9998 27C27.9998 27.2652 27.8945 27.5195 27.707 27.707Z" fill="#949BA1"/>
</svg>
