<svg width="351" height="24" viewBox="0 0 351 24" fill="none" xmlns="http://www.w3.org/2000/svg">
<g clip-path="url(#clip0_1768_78)">
<path d="M142.304 7.74924C142.304 7.74924 143.195 13.2503 139.002 13.7213C139.002 13.7213 138.313 13.836 137.969 13.3191C134.417 9.12404 123.126 1.76663 112 14.6796C112 14.6796 118.218 8.12184 125.719 8.88041C124.188 9.61988 123.126 11.2039 123.126 13.044C123.126 15.5901 125.153 17.6547 127.654 17.6547C130.154 17.6547 132.181 15.591 132.181 13.044C132.181 12.4115 132.056 11.8096 131.83 11.2603C132.472 11.7189 133.116 12.2501 133.756 12.8644C133.756 12.8644 135.57 14.6557 136.104 15.4468C136.835 16.5283 138.281 16.1318 138.677 16.0639C138.744 16.0525 138.954 15.9971 139.11 15.9608C140.197 15.7105 144.413 14.3003 142.304 7.74828V7.74924ZM131.578 11.9692C131.527 12.2424 131.373 12.4774 131.148 12.6274L129.544 13.7519L129.426 13.8341L129.346 13.7137L128.237 12.038C128.097 11.8173 128.046 11.5545 128.095 11.2966C128.197 10.7472 128.717 10.3851 129.252 10.4893C129.559 10.5485 129.813 10.7491 129.95 11.0243C130.176 10.8189 130.485 10.7272 130.792 10.7864C131.329 10.8896 131.681 11.4208 131.579 11.9692H131.578Z" fill="black"/>
<path d="M147.331 18.6568V3H150.402V9.34088C150.473 9.22528 150.541 9.11637 150.604 9.0151C150.668 8.91382 150.736 8.82688 150.807 8.75428C151.134 8.4218 151.521 8.16098 151.969 7.97277C152.417 7.78456 152.918 7.69093 153.472 7.69093C154.88 7.69093 156.038 8.21926 156.948 9.27592C157.858 10.3326 158.314 11.6863 158.314 13.3363C158.314 14.9862 157.858 16.3037 156.948 17.3747C156.038 18.4466 154.88 18.9817 153.472 18.9817C152.335 18.9817 151.453 18.6492 150.829 17.9833C150.714 17.8533 150.636 17.7521 150.594 17.6795C150.552 17.6069 150.487 17.4693 150.402 17.2667V18.6568H147.331ZM152.683 10.3402C151.93 10.3402 151.318 10.6154 150.849 11.1657C150.38 11.716 150.146 12.4545 150.146 13.3802C150.146 14.306 150.387 14.9729 150.871 15.5079C151.354 16.0429 151.994 16.3114 152.79 16.3114C153.53 16.3114 154.126 16.04 154.581 15.4974C155.036 14.9547 155.263 14.242 155.263 13.3583C155.263 12.4745 155.029 11.7332 154.56 11.1762C154.091 10.6192 153.465 10.3402 152.683 10.3402Z" fill="black"/>
<path d="M169.348 14.3137H161.501C161.614 15.0522 161.902 15.635 162.365 16.062C162.826 16.4891 163.392 16.7031 164.06 16.7031C164.557 16.7031 165.066 16.5512 165.584 16.2474C166.103 15.9435 166.525 15.5451 166.853 15.0531L169.028 16.5731C168.346 17.4273 167.62 18.0425 166.853 18.4189C166.085 18.7954 165.161 18.9836 164.081 18.9836C162.417 18.9836 161.07 18.4734 160.04 17.453C159.009 16.4327 158.494 15.1047 158.494 13.4681C158.494 11.8316 159.012 10.4424 160.05 9.34184C161.088 8.24219 162.403 7.69189 163.995 7.69189C165.587 7.69189 166.881 8.22786 167.876 9.29885C168.871 10.3698 169.369 11.7742 169.369 13.5121L169.348 14.3156V14.3137ZM163.975 9.94851C162.624 9.94851 161.8 10.73 161.501 12.294H166.342C166.256 11.5698 166.004 10.9985 165.584 10.5791C165.165 10.1596 164.628 9.94946 163.975 9.94946V9.94851Z" fill="black"/>
<path d="M169.131 10.5791V7.99475H170.688V5.34547H173.737V7.99475H176.317V10.5791H173.737V15.3779C173.836 16.0878 174.277 16.4422 175.059 16.4422C175.357 16.4422 175.713 16.3773 176.125 16.2473L176.551 18.5489C175.641 18.8097 174.824 18.9396 174.099 18.9396C172.897 18.9396 171.979 18.5422 171.344 17.7454C171.075 17.3976 170.899 17.0546 170.814 16.7136C170.73 16.3735 170.688 15.8203 170.688 15.0522V10.5791H169.131Z" fill="black"/>
<path d="M175.501 10.5791V7.99475H177.057V5.34547H180.107V7.99475H182.687V10.5791H180.107V15.3779C180.206 16.0878 180.647 16.4422 181.428 16.4422C181.727 16.4422 182.082 16.3773 182.494 16.2473L182.921 18.5489C182.011 18.8097 181.194 18.9396 180.469 18.9396C179.267 18.9396 178.348 18.5422 177.713 17.7454C177.445 17.3976 177.269 17.0546 177.184 16.7136C177.1 16.3735 177.057 15.8203 177.057 15.0522V10.5791H175.501Z" fill="black"/>
<path d="M193.947 14.3137H186.1C186.213 15.0522 186.501 15.635 186.964 16.062C187.425 16.4891 187.991 16.7031 188.659 16.7031C189.156 16.7031 189.665 16.5512 190.184 16.2474C190.702 15.9435 191.125 15.5451 191.452 15.0531L193.627 16.5731C192.945 17.4273 192.219 18.0425 191.452 18.4189C190.685 18.7954 189.76 18.9836 188.68 18.9836C187.016 18.9836 185.669 18.4734 184.639 17.453C183.608 16.4327 183.093 15.1047 183.093 13.4681C183.093 11.8316 183.612 10.4424 184.649 9.34184C185.687 8.24219 187.002 7.69189 188.594 7.69189C190.186 7.69189 191.48 8.22786 192.476 9.29885C193.47 10.3698 193.968 11.7742 193.968 13.5121L193.947 14.3156V14.3137ZM188.573 9.94851C187.222 9.94851 186.398 10.73 186.099 12.294H190.94C190.854 11.5698 190.602 10.9985 190.183 10.5791C189.763 10.1596 189.227 9.94946 188.573 9.94946V9.94851Z" fill="black"/>
<path d="M194.511 18.6568V7.99475H197.581V9.79755C197.766 9.13165 198.107 8.61766 198.605 8.25557C199.102 7.89347 199.735 7.71291 200.503 7.71291C200.688 7.71291 200.847 7.72055 200.982 7.73488C201.117 7.74921 201.299 7.78552 201.526 7.8438L200.971 10.8619C200.587 10.7606 200.225 10.7099 199.884 10.7099C199.144 10.7099 198.554 10.9775 198.113 11.5134C197.914 11.7599 197.776 12.0236 197.698 12.3064C197.619 12.5892 197.58 12.9761 197.58 13.4681V18.6578H194.51L194.511 18.6568Z" fill="black"/>
<path d="M201.952 18.6568V3H205.022V18.6568H201.952Z" fill="black"/>
<path d="M213.769 9.4498V7.99475H216.84V18.6568H213.769V17.2887C213.115 18.418 212.063 18.9826 210.613 18.9826C209.162 18.9826 208.051 18.4572 207.147 17.4053C206.245 16.3534 205.793 15.0082 205.793 13.3697C205.793 11.7313 206.252 10.4358 207.169 9.35521C208.085 8.27467 209.226 7.73488 210.591 7.73488C211.714 7.73488 212.638 8.10366 213.364 8.84217L213.769 9.4498ZM211.317 10.3182C210.591 10.3182 209.983 10.6068 209.494 11.1819C209.003 11.758 208.758 12.4831 208.758 13.3583C208.758 14.2334 209 14.9767 209.483 15.5451C209.967 16.1136 210.599 16.3983 211.381 16.3983C212.164 16.3983 212.775 16.1136 213.258 15.5451C213.741 14.9767 213.983 14.2477 213.983 13.3583C213.983 12.4688 213.727 11.7762 213.215 11.1934C212.703 10.6096 212.071 10.3182 211.318 10.3182H211.317Z" fill="black"/>
<path d="M225.485 9.38387V3H228.556V18.6568H225.485V17.2018C224.974 18.3893 223.915 18.9826 222.308 18.9826C220.886 18.9826 219.728 18.4619 218.832 17.4196C217.936 16.3773 217.488 15.0311 217.488 13.3812C217.488 11.7313 217.957 10.4281 218.896 9.34184C219.834 8.25652 220.999 7.71291 222.392 7.71291C223.785 7.71291 224.859 8.27085 225.484 9.38483L225.485 9.38387ZM223.118 10.3402C222.379 10.3402 221.767 10.6259 221.284 11.1981C220.801 11.7695 220.559 12.4975 220.559 13.3802C220.559 14.263 220.801 14.9624 221.284 15.5193C221.767 16.0763 222.386 16.3553 223.14 16.3553C223.894 16.3553 224.512 16.0763 224.995 15.5193C225.478 14.9624 225.72 14.242 225.72 13.3583C225.72 12.4745 225.478 11.7513 224.995 11.1867C224.512 10.6221 223.886 10.3402 223.118 10.3402Z" fill="black"/>
<path d="M228.847 7.99474H232.11L233.965 13.1194C234.008 13.279 234.057 13.4423 234.115 13.6086C234.171 13.7748 234.214 13.9382 234.242 14.0977C234.27 14.2573 234.302 14.434 234.338 14.6299C234.374 14.8257 234.391 15.0245 234.391 15.227L234.583 14.0977L234.86 13.1424L236.695 7.9957H240L235.373 19.423L235.117 19.9867C234.86 20.5791 234.658 21.0052 234.509 21.266C234.359 21.5258 234.185 21.7714 233.986 22.0026C233.702 22.2921 233.304 22.53 232.792 22.7182C232.28 22.9064 231.761 23 231.235 23C230.652 23 230.084 22.8987 229.53 22.6962L230.02 20.1119C230.347 20.2418 230.66 20.3068 230.959 20.3068C231.414 20.3068 231.762 20.1692 232.004 19.895C232.246 19.6199 232.523 19.0208 232.835 18.0951L228.848 7.99379L228.847 7.99474Z" fill="black"/>
</g>
<path d="M25.7061 8.70605L21.353 13.0591L25.7061 17.4121" stroke="#327455" stroke-width="1.2" stroke-linecap="round" stroke-linejoin="round"/>
<defs>
<clipPath id="clip0_1768_78">
<rect width="128" height="20" fill="white" transform="translate(112 3)"/>
</clipPath>
</defs>
</svg>
